# xmcd
#
# Track frame offsets:
#	183
#	27243
#	46665
#	82483
#	107408
#	121340
#	137825
#	178940
#	191018
#	212425
#	243918
#
# Disc length: 3543 seconds
#
# Revision: 1
# Processed by: cddbd v1.4PL0 Copyright (c) Steve Scherf et al.
# Submitted via: audiograbber 1.80
#
DISCID=950dd50b
DTITLE=Muddy Waters - Goin' Home (live in Paris 1970)
DYEAR=1900
DGENRE=
TTITLE0=Chicken Shack
TTITLE1=Carrey Shuffle
TTITLE2=After Hours
TTITLE3=Train fare Home
TTITLE4=Honey Bee
TTITLE5=Blow Wind Blow
TTITLE6=Long Distance Call
TTITLE7=Trouble No More
TTITLE8=Hoochi Coochie Man
TTITLE9=Mojo Workin'
TTITLE10=Goin' Home
EXTD=Muddy Waters: Vocals, Guitar - \nCarry Bell: Harmonica - \nJames Madison: gu
EXTD=itar - \nSamual Lawhorn: guitar - \nPinetop Perkins: piano - \nCalvin Johnes:
EXTD=bass - \nWillie Smith: drums
EXTT0=
EXTT1=
EXTT2=
EXTT3=
EXTT4=
EXTT5=
EXTT6=
EXTT7=
EXTT8=
EXTT9=
EXTT10=
PLAYORDER=
